<mxfile host="app.diagrams.net" modified="2023-06-26T07:27:27.612Z" agent="Mozilla/5.0 (Macintosh; Intel Mac OS X 10_15_7) AppleWebKit/537.36 (KHTML, like Gecko) Chrome/114.0.0.0 Safari/537.36" version="21.4.0" etag="5K7V1joAjatQRc7OT7ok" type="github">
  <diagram name="Trang-1" id="ENx7nmrPq4mUki6NZXkP">
    <mxGraphModel>
      <root>
        <mxCell id="0" />
        <mxCell id="1" parent="0" />
      </root>
    </mxGraphModel>
  </diagram>
</mxfile>
